<svg xmlns="http://www.w3.org/2000/svg" width="436.392" height="138.371" viewBox="0 0 436.392 138.371">
  <g id="Group_86" data-name="Group 86" transform="translate(-9033.83 620.267)">
    <path id="Path_19" data-name="Path 19" d="M50.431-80.164q-4.012.154-8.409,3.626a46.544,46.544,0,0,0-8.486,9.026,81.143,81.143,0,0,0-7.483,12.5,89.022,89.022,0,0,0-5.477,14.04A64.789,64.789,0,0,0,18.03-27.243a26.435,26.435,0,0,0,1.389,11.417,7.736,7.736,0,0,0,5.554,4.86,10.064,10.064,0,0,0,8.332-1.466,5.837,5.837,0,0,1-3.24,3.857,18.833,18.833,0,0,1-6.48,2.083,24.023,24.023,0,0,1-7.869-.231,17.784,17.784,0,0,1-7.483-3.24,16.179,16.179,0,0,1-5.169-6.789q-1.851-4.32-.926-10.955A84.507,84.507,0,0,1,7.539-48,85.038,85.038,0,0,1,18.185-67.358a61.837,61.837,0,0,1,14.966-14.58,32.9,32.9,0,0,1,18.361-5.94q6.326,0,10.183,2.469a16.349,16.349,0,0,1,5.94,6.712,28.291,28.291,0,0,1,2.623,9.8,73.705,73.705,0,0,1,.154,11.726Q70.026-51,69.1-44.755t-1.851,11.8q-.463,3.24-1.311,7.869t-1.7,9.952q-.849,5.323-1.466,10.723T62.08,5.544A36.917,36.917,0,0,0,62.7,13.49q.694,3.394,2.391,4.629,17.28-43.2,31.012-71.128t25.766-41.041a22.432,22.432,0,0,1,7.637-5.477A31.435,31.435,0,0,1,138.531-102a37.2,37.2,0,0,1,8.949,0,26.72,26.72,0,0,1,7.329,1.851,9.272,9.272,0,0,1,4.32,3.394,3.922,3.922,0,0,1-.077,4.4,4.748,4.748,0,0,0-2.777-2.469,9.889,9.889,0,0,0-4.706-.463,18.267,18.267,0,0,0-5.863,1.851,27.328,27.328,0,0,0-6.249,4.32,87.144,87.144,0,0,0-12.575,14.658q-6.4,9.1-12.806,20.212t-12.5,23.375Q95.484-18.6,90.084-6.8T80.132,15.572Q75.581,26.141,72.34,34.01a19.318,19.318,0,0,1-7.406-.54,26.575,26.575,0,0,1-7.252-3.086,29.806,29.806,0,0,1-6.094-4.937,18.424,18.424,0,0,1-3.934-6.094,17.847,17.847,0,0,1-1-6.4q-.077-4.243.309-9.566T48.117-7.88q.771-5.94,1.7-11.726T51.588-30.56q.849-5.169,1.466-8.717,1.234-6.634,2.391-13.963A93.948,93.948,0,0,0,56.68-66.587a30,30,0,0,0-1.234-9.875Q54.134-80.319,50.431-80.164ZM233.573-30.483a4.2,4.2,0,0,1,.463,4.012,68.918,68.918,0,0,1-3.549,8.332q-1.543,2.623-3.857,6.326t-5.4,8.177q-6.789,9.1-12.806,12.652a12.107,12.107,0,0,1-7.1,1.08,33.15,33.15,0,0,1-3.934-1.08,23.07,23.07,0,0,1-3.472-1.543q-3.394-2.16-4.012-4.32-.771-3.394.463-9.72.771-3.086,1.466-6.094t1.62-6.249q.926-3.086,1.7-5.323t1.389-3.934q.154-.617.309-1.08a2.538,2.538,0,0,0,.154-.771,65.609,65.609,0,0,0-7.56,8.872q-3.857,5.323-8.332,12.42A253,253,0,0,0,168,14.261q-.926,2.16-4.937,1.7a17.4,17.4,0,0,1-6.634-2.16q-3.24-1.851-2.777-4.166.463-1.851,1.389-4.552t2.16-6.557q1.851-5.246,3.626-10.877T164.3-23.849q1.08-3.857,1.774-7.174a60.844,60.844,0,0,0,1-6.4,5.29,5.29,0,0,1,.077-1,4.334,4.334,0,0,0,.077-.849q-.463-5.246-4.166-6.48a15.772,15.772,0,0,0-9.257,0,27.213,27.213,0,0,0-8.023,3.086q8.332,4.012,9.257,12.652a62.778,62.778,0,0,1-1.466,13.269,60.231,60.231,0,0,1-4.86,13.732q-6.326,13.886-12.96,17.9-7.252,3.086-16.509.463A15.24,15.24,0,0,1,107.981,3.152a38.354,38.354,0,0,1,.231-7.946,49.151,49.151,0,0,1,2.237-9.489,75.442,75.442,0,0,1,3.472-9.335,62.06,62.06,0,0,1,4.089-7.637q1.7-1.851,5.092-.771a15.771,15.771,0,0,1,6.172,3.549Q131.9-26.163,130.662-24q-1.08,1.7-2.314,4.012t-2.623,5.246q-1.389,2.932-2.391,5.709a60.361,60.361,0,0,0-1.774,5.863q-1.7,6.017,0,9.72a2.182,2.182,0,0,0,2.469,1.389q1.7-.463,4.629-3.394a53.889,53.889,0,0,0,6.789-9.8,59.082,59.082,0,0,0,4.474-10.723q3.549-11.109,1.389-17.435-2.16-6.172-10.955-.926a6.244,6.244,0,0,1-6.789-.309,10.722,10.722,0,0,1-4.937-5.709q-1.389-3.394,1.851-5.4a81.685,81.685,0,0,1,11.032-4.783A81.008,81.008,0,0,1,144.7-53.935a37.587,37.587,0,0,1,26.538,4.783,17.573,17.573,0,0,1,7.252,8.64,22.74,22.74,0,0,1,1.234,10.492q-.309,2.314-.771,4.629a30.921,30.921,0,0,1-1.389,4.783q-.771,1.851-1.466,3.78t-1.466,3.78l.926-1.234a6.038,6.038,0,0,0,.771-1.389q3.086-4.474,6.249-8.949t6.712-9.412q6.943-9.566,12.652-13.732a7.74,7.74,0,0,1,6.789-.617,13.733,13.733,0,0,1,6.48,3.7q2.314,2.932,1.543,5.4-.463,1.234-1,2.546t-1.311,3.009q-1.852,4.166-3.7,8.795t-3.857,9.72q-3.7,10.029-3.7,15.892A27.6,27.6,0,0,0,208.5-3.1a38.345,38.345,0,0,0,5.323-5.94,57.285,57.285,0,0,0,5.477-7.406q2.391-3.857,4.552-8.023,3.24-5.863,4.629-7.1l1.08-.54a1.17,1.17,0,0,1,.926-.077A5.647,5.647,0,0,1,233.573-30.483ZM309.021-57.33a64.055,64.055,0,0,1,8.795,4.012,37.91,37.91,0,0,1,6.789,4.783q5.709,5.092,3.549,16.972-.771,2.932-2.006,7.174t-3.394,9.8Q320.9-9.345,319.2-3.945T315.81,7.009a91.828,91.828,0,0,0-2.546,10.183,37.864,37.864,0,0,0-.694,8.332q0,7.56,6.172,7.406-2.314,3.7-7.869,3.086a16.221,16.221,0,0,1-10.029-5.554q-4.474-5.092-2.932-14.04,1.389-6.172,3.626-13.115t5.323-14.812q1.851-4.629,3.24-8.64t2.314-7.1q2.777-8.486.926-13.886t-9.875-7.406q2.16,8.023-2.469,21.292-2.623,6.789-5.863,13.192a116.47,116.47,0,0,1-7.406,12.575q-8.332,12.5-16.355,17.743-4.474,2.469-11.572,1.08-6.943-1.7-10.337-5.863Q245.3,5.466,247.768-4.1q-1.7,2.932-3.7,5.863t-4.32,5.863a26.8,26.8,0,0,1-4.4,4.783,26.4,26.4,0,0,1-4.243,2.932,17.831,17.831,0,0,1-10.183.154A8.341,8.341,0,0,1,214.6,8.244Q214.75-3.637,223.853-22q9.566-18.052,22.218-23.452a13.138,13.138,0,0,1,6.943-.309,35.753,35.753,0,0,1,3.549,1.08q1.7.617,3.394,1.389a.889.889,0,0,0,.309-.617q.926-2.314,2.7-5.863t4.089-8.64q2.314-4.783,4.783-9.489t5.092-9.489A79.781,79.781,0,0,1,282.1-84.87a19.861,19.861,0,0,1,4.552-4.4q2.932-1.851,7.1-.309a21.108,21.108,0,0,1,3.394,1.774,9.5,9.5,0,0,1,2.623,2.546q2.006,2.777,0,4.629-8.486,8.023-18.515,27.155-4.937,9.72-8.872,18.978t-7.02,18.361q-5.863,17.9-2.006,21.909,2.931,1.389,9.257-5.554A84.438,84.438,0,0,0,284.8-17.523a66.311,66.311,0,0,0,7.56-20.212Q293.9-47.3,287.112-51q-2.469-.926-1.7-4.32a14.944,14.944,0,0,1,3.24-6.172,18.71,18.71,0,0,1,2.623-2.7,11.967,11.967,0,0,1,2.777-1.774,3.768,3.768,0,0,1,4.937.617.75.75,0,0,0,.154.386,5.051,5.051,0,0,1,.309.54,6.767,6.767,0,0,0,2.16,2.932Q303.467-59.8,309.021-57.33ZM254.094-31.255a5.672,5.672,0,0,0,0-3.7q-.771-.926-3.086.154a27.93,27.93,0,0,0-4.937,4.937,79.226,79.226,0,0,0-5.092,7.252,96.7,96.7,0,0,0-8.332,16.663q-3.086,7.869-1.543,9.257,1.7.771,5.092-3.7A58.059,58.059,0,0,0,243.6-11.2q1.851-3.24,3.626-6.249t3.317-5.94q1.543-2.932,2.392-4.937T254.094-31.255Zm124.2,2.469a1.777,1.777,0,0,1,1.62-.463,4.761,4.761,0,0,1,1.929.771,3.854,3.854,0,0,1,1.389,1.62,2.167,2.167,0,0,1-.154,2.083,58.444,58.444,0,0,1-5.632,11.957,79.408,79.408,0,0,1-8.255,11.186,94.57,94.57,0,0,1-9.72,9.566,64.526,64.526,0,0,1-10.029,7.1,8.216,8.216,0,0,1-4.937.926,18.244,18.244,0,0,1-5.246-1.466,26.832,26.832,0,0,1-4.783-2.7,28.336,28.336,0,0,1-3.549-2.932A12.642,12.642,0,0,1,327.69.606a37.825,37.825,0,0,1,1.157-11.186,71.479,71.479,0,0,1,4.4-12.5A98.15,98.15,0,0,1,339.8-35.266a69.264,69.264,0,0,1,7.637-10.029A32.777,32.777,0,0,1,355-51.621a9.991,9.991,0,0,1,4.012-1.157,10.427,10.427,0,0,1,3.857.617,19.975,19.975,0,0,1,4.089,2.006q2.083,1.311,4.706,2.854,3.7,2.314,3.394,5.863a24.939,24.939,0,0,1-1.311,6.017,55.823,55.823,0,0,1-3.7,9.026A45.169,45.169,0,0,1,364.18-17.6a17.122,17.122,0,0,1-7.792,5.477,14.576,14.576,0,0,1-5.4.463A18.837,18.837,0,0,1,345.9-13.2a31.458,31.458,0,0,0-1.7,4.552,41.759,41.759,0,0,0-1.389,6.094,26.034,26.034,0,0,0-.309,5.477q.154,2.391,1.851,2.7,2.469.463,7.02-2.623a63.889,63.889,0,0,0,9.489-8.1,114.938,114.938,0,0,0,9.72-11.34A75.357,75.357,0,0,0,378.3-28.786ZM362.868-40.2a21.6,21.6,0,0,0-3.934,4.089q-2.391,3.009-4.629,6.4t-3.857,6.326a11.908,11.908,0,0,0-1.62,3.7A5.982,5.982,0,0,0,354-21.38a22.619,22.619,0,0,0,4.32-5.477,34.239,34.239,0,0,0,3.086-7.02A35.908,35.908,0,0,0,362.868-40.2Zm42.738,12.652a2.469,2.469,0,0,1,1.851-1.157,3.433,3.433,0,0,1,1.929.386,4.016,4.016,0,0,1,1.389,1.234,1.316,1.316,0,0,1,.077,1.543q-1.7,3.549-4.937,9.257t-7.1,11.417a101.015,101.015,0,0,1-7.946,10.337q-4.089,4.629-7.329,6.017a9.638,9.638,0,0,1-4.629.463,14.826,14.826,0,0,1-4.937-1.466A11.385,11.385,0,0,1,370.12,7.4,6.192,6.192,0,0,1,368.731,3a51.792,51.792,0,0,1,1.311-8.255,112.525,112.525,0,0,1,3.086-10.955q1.929-5.786,4.243-11.417a67.346,67.346,0,0,1,4.783-9.643q.771-1.234,3.163-1.234a12.572,12.572,0,0,1,4.706.926,11.311,11.311,0,0,1,3.857,2.469,2.7,2.7,0,0,1,.771,3.24q-7.252,13.886-9.875,21.678T383.08-.088q.617,1.7,2.623.386a25,25,0,0,0,5.014-5.014q3.009-3.7,6.866-9.566T405.607-27.552Zm-9.72-16.2a3.581,3.581,0,0,1-2.7,1.389,9.315,9.315,0,0,1-3.549-.386,8.842,8.842,0,0,1-3.086-1.62,2.577,2.577,0,0,1-1.157-2.314,33.232,33.232,0,0,1,1-4.552q.694-2.391,1.466-4.474t1.543-3.78q.771-1.7,1.234-2.623a3.943,3.943,0,0,1,3.394-1.466,12.28,12.28,0,0,1,4.86.849,11.18,11.18,0,0,1,3.934,2.469q1.543,1.543.617,3.086-.463.926-1.466,2.7t-2.083,3.7q-1.08,1.929-2.16,3.78T395.886-43.752Zm36.875,16.2a2.469,2.469,0,0,1,1.851-1.157,3.433,3.433,0,0,1,1.929.386,4.016,4.016,0,0,1,1.389,1.234,1.316,1.316,0,0,1,.077,1.543q-1.7,3.549-4.937,9.257t-7.1,11.417a101.011,101.011,0,0,1-7.946,10.337q-4.089,4.629-7.329,6.017a9.638,9.638,0,0,1-4.629.463,14.827,14.827,0,0,1-4.937-1.466A11.385,11.385,0,0,1,397.275,7.4,6.192,6.192,0,0,1,395.886,3,51.792,51.792,0,0,1,397.2-5.257a112.517,112.517,0,0,1,3.086-10.955q1.929-5.786,4.243-11.417a67.346,67.346,0,0,1,4.783-9.643q.771-1.234,3.163-1.234a12.571,12.571,0,0,1,4.706.926,11.311,11.311,0,0,1,3.857,2.469,2.7,2.7,0,0,1,.771,3.24q-7.252,13.886-9.875,21.678t-1.7,10.106q.617,1.7,2.623.386a25,25,0,0,0,5.014-5.014q3.009-3.7,6.866-9.566T432.762-27.552Zm-9.72-16.2a3.581,3.581,0,0,1-2.7,1.389,9.315,9.315,0,0,1-3.549-.386,8.842,8.842,0,0,1-3.086-1.62,2.577,2.577,0,0,1-1.157-2.314,33.227,33.227,0,0,1,1-4.552q.694-2.391,1.466-4.474t1.543-3.78q.771-1.7,1.234-2.623a3.943,3.943,0,0,1,3.394-1.466,12.28,12.28,0,0,1,4.86.849,11.18,11.18,0,0,1,3.934,2.469q1.543,1.543.617,3.086-.463.926-1.466,2.7t-2.083,3.7q-1.08,1.929-2.16,3.78T423.042-43.752Z" transform="translate(9032 -518)" fill="#fff"/>
  </g>
</svg>
